<svg width="19" height="19" viewBox="0 0 19 19" fill="none" xmlns="http://www.w3.org/2000/svg">
<path d="M0.059375 4.22156C0.179097 3.69698 0.473403 3.22859 0.894094 2.89312C1.31479 2.55764 1.83693 2.37496 2.375 2.375H16.625C17.1631 2.37496 17.6852 2.55764 18.1059 2.89312C18.5266 3.22859 18.8209 3.69698 18.9406 4.22156L9.5 9.99163L0.059375 4.22156ZM0 5.57769V14.0137L6.89106 9.78856L0 5.57769ZM8.02869 10.4856L0.226812 15.2677C0.419575 15.6742 0.723813 16.0175 1.10412 16.2578C1.48442 16.4981 1.92514 16.6254 2.375 16.625H16.625C17.0748 16.6251 17.5153 16.4975 17.8954 16.257C18.2755 16.0165 18.5795 15.673 18.772 15.2665L10.9701 10.4844L9.5 11.3834L8.02869 10.4856ZM12.1089 9.78975L19 14.0137V5.57769L12.1089 9.78856V9.78975Z" fill="#D9D9D9"/>
</svg>
