<svg width="26" height="26" viewBox="0 0 26 26" fill="none" xmlns="http://www.w3.org/2000/svg">
<path d="M22.1759 2.16666H3.82419C3.6179 2.16379 3.41307 2.20159 3.22139 2.2779C3.02971 2.3542 2.85493 2.46752 2.70705 2.61138C2.55917 2.75523 2.44108 2.92681 2.35951 3.11632C2.27795 3.30582 2.23452 3.50953 2.23169 3.71582V22.2842C2.23452 22.4904 2.27795 22.6942 2.35951 22.8837C2.44108 23.0732 2.55917 23.2447 2.70705 23.3886C2.85493 23.5325 3.02971 23.6458 3.22139 23.7221C3.41307 23.7984 3.6179 23.8362 3.82419 23.8333H22.1759C22.3821 23.8362 22.587 23.7984 22.7787 23.7221C22.9703 23.6458 23.1451 23.5325 23.293 23.3886C23.4409 23.2447 23.559 23.0732 23.6405 22.8837C23.7221 22.6942 23.7655 22.4904 23.7684 22.2842V3.71582C23.7655 3.50953 23.7221 3.30582 23.6405 3.11632C23.559 2.92681 23.4409 2.75523 23.293 2.61138C23.1451 2.46752 22.9703 2.3542 22.7787 2.2779C22.587 2.20159 22.3821 2.16379 22.1759 2.16666ZM8.76419 20.3017H5.51419V10.5517H8.76419V20.3017ZM7.13919 9.18666C6.69097 9.18666 6.26112 9.0086 5.94418 8.69167C5.62724 8.37473 5.44919 7.94487 5.44919 7.49666C5.44919 7.04844 5.62724 6.61858 5.94418 6.30165C6.26112 5.98471 6.69097 5.80666 7.13919 5.80666C7.37719 5.77966 7.61821 5.80325 7.84647 5.87586C8.07473 5.94848 8.28507 6.06849 8.46373 6.22803C8.6424 6.38758 8.78534 6.58306 8.88322 6.80168C8.98109 7.0203 9.03168 7.25713 9.03168 7.49666C9.03168 7.73618 8.98109 7.97301 8.88322 8.19163C8.78534 8.41025 8.6424 8.60574 8.46373 8.76528C8.28507 8.92483 8.07473 9.04483 7.84647 9.11745C7.61821 9.19006 7.37719 9.21365 7.13919 9.18666ZM20.4859 20.3017H17.2359V15.0692C17.2359 13.7583 16.77 12.9025 15.5892 12.9025C15.2237 12.9052 14.8679 13.0198 14.5696 13.2309C14.2713 13.4421 14.0449 13.7396 13.9209 14.0833C13.8361 14.3379 13.7993 14.6061 13.8125 14.8742V20.2908H10.5625V10.5408H13.8125V11.9167C14.1078 11.4044 14.5372 10.9823 15.0545 10.696C15.5718 10.4096 16.1575 10.2698 16.7484 10.2917C18.915 10.2917 20.4859 11.6892 20.4859 14.69V20.3017Z" fill="#D9D9D9"/>
</svg>
