<svg width="599" height="538" viewBox="0 0 599 538" fill="none" xmlns="http://www.w3.org/2000/svg">
<path d="M78.0527 474.693C72.5785 471.311 72.7016 466.003 78.4223 462.706C84.1431 459.41 93.356 459.339 99.2271 462.493L99.2331 462.49L139.46 485.666L139.458 485.667C145.193 489.04 145.156 494.462 139.347 497.809C133.538 501.156 124.128 501.177 118.272 497.873L118.272 497.874L78.0464 474.697L78.0527 474.693Z" fill="#EBF5FF"/>
<path d="M182.599 203.884C179.938 202.239 179.999 199.66 182.779 198.058C185.558 196.456 190.035 196.422 192.888 197.955L192.891 197.953L212.439 209.216C215.226 210.855 215.207 213.49 212.384 215.116C209.561 216.743 204.989 216.753 202.144 215.147L202.143 215.148L182.596 203.885L182.599 203.884Z" fill="#EBF5FF"/>
<path d="M514.681 425.474C512.02 423.831 512.08 421.251 514.86 419.649C517.64 418.048 522.117 418.013 524.97 419.546L524.973 419.544L544.52 430.807C547.307 432.446 547.289 435.081 544.466 436.708C541.643 438.334 537.07 438.345 534.225 436.739H534.224L514.677 425.476L514.681 425.474Z" fill="#EBF5FF"/>
<path d="M72.7147 334.981C68.2312 337.565 61.7748 338.038 58.3066 336.04L24.0959 317.114C20.6271 315.116 21.4505 311.395 25.934 308.812L93.1849 269.614C97.6684 267.031 104.125 266.557 107.594 268.555L141.586 288.174C145.055 290.172 144.23 293.892 139.747 296.475L72.7147 334.981Z" fill="#EBF5FF"/>
<path d="M45.1191 263.749C43.9268 263.062 43.1861 261.571 43.1861 259.45L42.998 163.791C42.998 159.616 45.8688 154.573 49.4044 152.536L106.039 119.996C107.825 118.966 109.44 118.9 110.603 119.624L112.052 120.459L110.744 121.212C110.88 121.746 110.952 122.347 110.952 123.008L111.701 218.936C110.299 159.155 107.608 172.383 105.295 230.191L48.0997 262.462C47.6379 262.729 47.1875 262.931 46.7526 263.071V264.689L45.1191 263.749V263.749Z" fill="#E9F4FF"/>
<path d="M51.0368 153.477C47.5012 155.514 44.6313 160.557 44.6313 164.732L44.8188 260.391C44.8188 264.566 47.6904 266.301 51.2257 264.263L108.42 231.992C111.956 229.955 114.826 224.911 114.826 220.737L114.078 124.809C114.078 120.634 111.207 118.899 107.671 120.936L51.0368 153.477Z" fill="url(#paint0_linear_281_439)"/>
<path d="M59.6056 180.128C58.9784 180.49 58.469 181.384 58.469 182.125V185.13C58.469 185.871 58.9784 186.179 59.6056 185.817L103.001 160.849C103.629 160.488 104.138 159.593 104.138 158.853L104.038 155.8C104.038 155.059 103.529 154.751 102.902 155.113L59.6056 180.128Z" fill="#94CBFF"/>
<path d="M59.6056 196.022C58.9784 196.383 58.469 197.278 58.469 198.019V201.024C58.469 201.764 58.9784 202.073 59.6056 201.711L103.001 176.743C103.629 176.382 104.138 175.487 104.138 174.746L104.038 171.694C104.038 170.953 103.529 170.645 102.902 171.006L59.6056 196.022Z" fill="#94CBFF"/>
<path d="M59.6056 165.159C58.9784 165.521 58.469 166.416 58.469 167.157V170.162C58.469 170.902 58.9784 171.21 59.6056 170.849L103.001 145.881C103.629 145.52 104.138 144.625 104.138 143.884L104.038 140.832C104.038 140.09 103.529 139.783 102.902 140.144L59.6056 165.159Z" fill="#94CBFF"/>
<path d="M59.6056 212.028C58.9784 212.39 58.469 213.285 58.469 214.025V217.03C58.469 217.771 58.9784 218.079 59.6056 217.717L103.001 192.75C103.629 192.388 104.138 191.494 104.138 190.753L104.038 187.7C104.038 186.959 103.529 186.651 102.902 187.013L59.6056 212.028Z" fill="#94CBFF"/>
<path d="M59.6056 228.169C58.9784 228.53 58.469 229.425 58.469 230.166V233.171C58.469 233.912 58.9784 234.22 59.6056 233.858L103.001 208.89C103.629 208.529 104.138 207.634 104.138 206.893L104.038 203.84C104.038 203.1 103.529 202.792 102.902 203.153L59.6056 228.169Z" fill="#94CBFF"/>
<path d="M59.6056 242.593C58.9784 242.954 58.469 243.849 58.469 244.59V247.595C58.469 248.335 58.9784 248.643 59.6056 248.282L103.001 223.314C103.629 222.953 104.138 222.058 104.138 221.317L104.038 218.264C104.038 217.524 103.529 217.215 102.902 217.577L59.6056 242.593Z" fill="#94CBFF"/>
<path d="M122.478 181.635C121.343 180.829 119.681 180.89 117.78 181.986L98.7521 192.949C96.8694 194.034 94.9877 196.082 93.7334 198.733L89.969 206.684C89.5508 207.648 88.9237 208.251 88.2962 208.612L42.5018 234.998C39.1561 236.925 36.2288 241.986 36.2288 245.841V308.492C36.2288 310.392 36.8128 311.747 37.7948 312.451H37.7954C37.9485 312.561 38.1105 312.654 38.2827 312.732L44.604 316.374V310.895L117.78 268.733C121.336 266.685 124.054 261.986 124.054 257.89V188.033L128.818 185.288L122.478 181.635Z" fill="#B15CFF"/>
<mask id="mask0_281_439" style="mask-type:luminance" maskUnits="userSpaceOnUse" x="36" y="181" width="93" height="136">
<path d="M122.478 181.635C121.343 180.829 119.681 180.89 117.78 181.986L98.7521 192.949C96.8694 194.034 94.9877 196.082 93.7334 198.733L89.969 206.684C89.5508 207.648 88.9237 208.251 88.2962 208.612L42.5018 234.998C39.1561 236.925 36.2288 241.986 36.2288 245.841V308.492C36.2288 310.392 36.8128 311.747 37.7948 312.451H37.7954C37.9485 312.561 38.1105 312.654 38.2827 312.732L44.604 316.374V310.895L117.78 268.733C121.336 266.685 124.054 261.986 124.054 257.89V188.033L128.818 185.288L122.478 181.635Z" fill="white"/>
</mask>
<g mask="url(#mask0_281_439)">
<path d="M121.451 179.87L130.86 185.291L105.562 199.868L96.1514 194.446L121.451 179.87Z" fill="#C17EFF"/>
<path d="M86.3522 209.732L96.1527 215.379L50.5464 241.655L40.7458 236.009L86.3522 209.732Z" fill="#C17EFF"/>
</g>
<path d="M49.3091 238.92L95.1035 212.535C95.7307 212.174 96.3588 211.571 96.7772 210.607L100.541 202.655C101.796 200.005 103.677 197.957 105.559 196.872L124.588 185.908C128.143 183.86 130.861 185.426 130.861 189.523V261.812C130.861 265.908 128.143 270.607 124.588 272.655L49.3094 316.029C45.7546 318.077 43.0364 316.511 43.0364 312.414V249.763C43.0361 245.909 45.9637 240.848 49.3091 238.92Z" fill="#771EFF"/>
<path d="M114.828 278.28L100.758 224.608C101.386 224.246 102.013 223.644 102.431 222.68L123.8 232.628C125.054 229.978 128.981 233.147 130.862 232.062V261.813C130.862 265.909 128.143 270.608 124.589 272.656L114.828 278.28Z" fill="#6300FA"/>
<path d="M155.043 254.303C153.393 252.204 151.516 252.389 151.516 252.389C150.193 253.287 149.958 253.967 148.893 254.757C147.255 255.973 147.848 256.462 147.119 257.395C146.718 257.907 147.713 258.072 148.263 257.417C148.741 256.849 149.333 256.604 149.286 256.999C149.186 257.786 148.241 260.607 149.004 261.481C149.354 261.883 151.18 261.911 152.325 260.796C154.068 259.098 154.638 255.787 155.043 254.303Z" fill="#ECA16D"/>
<path d="M160.136 213.47C158.224 215.971 160.612 225.157 160.404 234.167C160.404 234.167 151.284 250.074 150.675 252.93C151.224 253.743 153.701 254.997 154.952 254.634C157.636 251.311 163.298 244.57 168.142 237.26C170.007 230.197 168.505 223.621 167.892 220.94C167.109 217.517 166.82 215.195 164.227 212.928C163.734 212.497 163.053 212.335 162.43 212.134C162.186 212.056 161.035 212.294 160.136 213.47Z" fill="#68B5FF"/>
<path d="M148.69 322.553C148.69 322.553 145.965 323.18 146.667 324.842C147.366 326.512 151.582 330.25 152.018 331.306C152.463 332.355 154.957 336.168 155.832 335.82C156.714 335.466 162.345 336.697 159.811 328.256C158.577 324.142 152.547 322.374 148.69 322.553Z" fill="#3D96DC"/>
<path d="M144.736 342.714C144.736 342.714 142.785 345.834 139.308 344.78C135.828 343.723 137.487 342.242 130.012 339.813C122.523 337.376 124.54 332.662 125.165 332.008C125.777 331.366 130.92 332.74 132.564 333.26C134.204 333.778 137.296 334.792 137.296 334.792L144.736 337.326V342.714Z" fill="#3D96DC"/>
<path d="M160.549 253.762C160.549 253.762 159.551 288.087 159.551 291.351C159.551 294.614 162.905 316.067 160.707 327.289C160.707 327.289 155.727 332.544 150.133 326.203C150.133 326.203 149.51 315.026 148.668 304.359C148.08 296.924 147.386 289.737 146.72 286.756C145.102 279.493 145.643 257.267 145.643 257.267L160.549 253.761V253.762H160.549Z" fill="#3400CC"/>
<path d="M149.44 257.879C149.44 257.879 143.77 286.075 144.06 304.725C144.06 304.725 145.571 331.963 144.704 337.273C144.704 337.273 132.802 340.221 131.606 334.628C131.606 334.628 131.914 302.216 131.606 295.443C131.316 288.669 130.613 269.78 133.301 258.879C135.981 247.981 149.44 257.879 149.44 257.879Z" fill="#3400CC"/>
<path d="M153.307 273.746C153.169 279.718 153.297 286.364 154.161 291.391C156.008 302.128 154.82 323.028 155.72 329.027C159.253 329.027 160.707 327.289 160.707 327.289C162.762 311.703 159.551 294.983 159.551 291.72C159.551 288.608 163.938 269.767 160.549 253.973L154.161 258.879C154.161 258.879 154.058 259.926 153.923 261.683L141.667 265.024C141.667 265.024 136.374 278.907 137.182 299.727C137.81 315.841 138.068 331.688 138.155 338.047C141.442 338.074 144.705 337.273 144.705 337.273C146.547 321.491 144.061 304.725 144.061 304.725C143.838 297.859 144.367 293.059 145.312 289.484C147.181 282.419 150.764 278.306 153.307 273.746Z" fill="url(#paint1_linear_281_439)"/>
<path d="M162.697 212.182C162.697 212.182 167.658 214.779 164.646 223.225C161.637 231.677 161.889 263.072 162.516 265.249C162.516 265.249 159.297 273.28 145.008 274.25C140.639 274.548 130.818 272.194 131.72 263.306C133.631 244.475 133.935 236.285 134.42 232.969C135.342 226.673 136.059 223.664 144.504 219.328C152.95 214.99 157.36 211.75 162.697 212.182Z" fill="#87C5FF"/>
<path d="M107.727 228.046C109.332 225.912 108.667 224.149 108.667 224.149C107.455 223.107 106.736 223.055 105.695 222.234C104.094 220.97 103.774 221.668 102.683 221.207C102.083 220.953 102.181 221.954 102.958 222.316C103.631 222.629 104.022 223.137 103.628 223.193C102.84 223.301 99.8653 223.12 99.2162 224.082C98.9185 224.524 99.3633 226.291 100.738 227.106C102.834 228.346 106.187 228.038 107.727 228.046Z" fill="#ECA16D"/>
<path d="M148.567 222.386C142.57 217.008 137.377 225.87 128.603 228.002C128.603 228.002 110.846 223.327 107.924 223.479C107.279 224.219 106.707 226.931 107.382 228.043C111.294 229.77 119.282 233.484 127.613 236.261C134.93 236.231 145.402 235.216 148.982 231.542C151.099 229.369 151.746 225.238 148.567 222.386Z" fill="#A4D3FF"/>
<path d="M156.848 207.863C156.848 207.863 156.228 212.298 157.7 215.107C159.037 217.658 148.503 219.753 148.3 217.408C148.283 217.16 150.367 213.372 147.926 208.788C146.649 206.392 156.848 207.863 156.848 207.863Z" fill="#EFB185"/>
<path d="M157.649 215.262C156.556 213.165 156.612 210.191 156.72 208.796L148.983 212.435L148.985 212.457C149.265 212.528 154.406 213.941 155.453 217.673C157.044 217.058 158.133 216.191 157.649 215.262Z" fill="#DD9569"/>
<path d="M148.918 216.036L145.446 218.842C145.446 218.842 156.026 222.089 159.237 216.952C159.695 216.222 159.208 213.744 157.366 213.25C157.366 213.25 156.92 217.474 148.918 216.036Z" fill="url(#paint2_linear_281_439)"/>
<path d="M146.329 195.9C146.329 195.9 144.518 200.131 144.787 203.815C144.87 204.938 144.484 205.263 144.159 206.08C143.499 207.74 144.483 207.278 144.64 208.538C144.735 209.291 144.335 212.128 145.538 212.934C146.948 213.88 149.251 214.618 152.688 213.445C156.844 212.017 161.31 206.436 159.652 201.3C157.976 196.165 152.626 191.868 146.329 195.9Z" fill="#EFB185"/>
<path d="M159.351 206.809C157.788 202.193 153.787 196.607 153.831 196.318C153.857 196.139 152.508 195.259 150.977 194.32C149.519 194.37 147.961 194.856 146.327 195.9C146.327 195.9 145.84 197.027 145.412 198.631C146.375 199.746 148.354 201.033 148.645 201.974C149.306 204.187 148.836 207.505 148.157 208.965C147.474 210.421 150.077 212.626 149.501 213.917L149.479 214.094C150.427 214.041 151.495 213.847 152.686 213.444C155.351 212.527 158.119 209.916 159.351 206.809Z" fill="#E6A376"/>
<path d="M145.957 196.097C145.957 196.097 145.412 198.011 148.046 199.602C150.113 200.856 149.933 204.191 149.814 204.837C149.7 205.483 149.005 208.418 149.257 208.801C149.749 209.533 151.495 207.304 152.295 207.473C154.34 207.909 153.502 209.804 151.596 211.772C149.571 213.865 154.773 214.839 157.225 213.129C158.536 212.223 159.009 211.674 160.766 208.362C163.313 203.533 163.552 197.673 157.836 194.429C152.123 191.192 147.714 193.632 145.957 196.097Z" fill="#414141"/>
<path d="M152.383 204.566C157.21 206.645 162.099 206.701 162.484 205.226C163.333 201.98 162.809 198.054 160.142 195.634C159.431 194.988 158.605 194.45 157.724 194.064C155.92 193.272 153.703 192.811 151.708 192.849C148.73 192.906 146.328 194.296 144.671 196.748C143.96 197.801 143.529 198.933 144.562 199.874C146.223 201.387 148.366 202.836 152.383 204.566Z" fill="#292929"/>
<path d="M338.457 514.184C335.277 516.016 330.461 516.215 327.707 514.629L105.975 386.878C103.221 385.291 103.567 382.515 106.747 380.683L257.167 294.019C260.347 292.187 265.163 291.987 267.917 293.574L489.649 421.325C492.403 422.912 492.057 425.687 488.878 427.519L338.457 514.184Z" fill="#EBF5FF"/>
<path d="M297.334 63.2072C298.576 62.4907 300.166 62.5182 301.802 63.4597L519.798 188.931C523.055 190.806 525.272 195.599 524.746 199.627L499.851 390.219C499.59 392.224 498.697 393.664 497.465 394.374L497.464 394.375C497.356 394.437 497.245 394.493 497.133 394.545L490.425 397.974L490.606 392.745L275 268.651C271.743 266.776 269.527 261.983 270.053 257.954L294.586 70.1244L290.603 66.6483L297.334 63.2072Z" fill="#96CCFF"/>
<path d="M524.23 203.591L499.854 390.219C499.592 392.224 498.7 393.665 497.467 394.375L497.467 394.375C497.358 394.437 497.248 394.494 497.135 394.545L491.109 397.626L490.43 397.893L514.865 207.265L524.23 203.591Z" fill="#65B4FF"/>
<path d="M517.705 203.228C518.232 199.199 516.015 194.406 512.758 192.532L294.762 67.0609C291.505 65.1862 288.433 66.935 287.907 70.9637L263.013 261.555C262.486 265.583 264.703 270.377 267.96 272.251L485.956 397.723C489.214 399.597 492.285 397.849 492.811 393.82L517.705 203.228Z" fill="#D7EBFF"/>
<path d="M515.462 203.805C515.983 199.812 513.785 195.061 510.557 193.203L294.477 68.834C291.248 66.9761 288.204 68.709 287.682 72.7025L263.007 261.619C262.486 265.612 264.683 270.363 267.911 272.221L483.992 396.59C487.22 398.448 490.265 396.714 490.786 392.721L515.462 203.805Z" fill="#000864"/>
<path d="M103.784 369.053C103.704 370.222 104.367 371.349 105.806 372.178L326.632 499.408C329.637 501.139 334.893 500.921 338.362 498.922L485.086 414.387C487.052 413.254 488.024 411.791 487.952 410.42V402.242L482.392 405.445V405.591L265.101 280.399C262.097 278.668 256.841 278.885 253.372 280.884L109.161 363.972L103.778 360.871V369.049L103.784 369.053Z" fill="#B2DAFF"/>
<path d="M479.287 403.802L340.149 483.967V497.893L485.087 414.387C487.052 413.255 488.026 411.791 487.953 410.42V402.241L482.392 405.445V405.591L479.287 403.802Z" fill="#9FD0FF"/>
<path d="M338.341 491.052C335.226 492.846 330.509 493.042 327.812 491.487L105.875 363.618C103.178 362.064 103.517 359.346 106.631 357.551L253.97 272.662C257.084 270.867 261.802 270.672 264.499 272.226L486.436 400.095C489.133 401.65 488.794 404.368 485.68 406.162L338.341 491.052Z" fill="#D7EBFF"/>
<path d="M337.72 489.309C334.63 491.09 329.949 491.283 327.273 489.742L107.083 362.879C104.407 361.337 104.744 358.64 107.833 356.859L254.013 272.637C257.103 270.856 261.784 270.663 264.459 272.205L484.65 399.068C487.326 400.61 486.99 403.307 483.9 405.087L337.72 489.309Z" fill="#82C2FF"/>
<path d="M361.688 444.083C359.901 445.112 357.193 445.224 355.647 444.332L182.067 344.324C180.52 343.433 180.714 341.873 182.501 340.844L267.028 292.143C268.815 291.114 271.521 291.002 273.068 291.894L446.648 391.902C448.195 392.794 448.002 394.353 446.214 395.383L361.688 444.083Z" fill="url(#paint3_linear_281_439)"/>
<path d="M386.849 366.211L376.936 371.922L387.551 378.038L397.465 372.327L386.849 366.211Z" fill="#75BCFF"/>
<path d="M354.375 384.921L344.461 390.633L355.077 396.749L364.99 391.038L354.375 384.921Z" fill="#75BCFF"/>
<path d="M370.692 375.52L360.778 381.232L371.394 387.348L381.307 381.637L370.692 375.52Z" fill="#75BCFF"/>
<path d="M338.215 394.231L328.302 399.943L338.917 406.059L348.83 400.347L338.215 394.231Z" fill="#75BCFF"/>
<path d="M321.332 403.958L311.418 409.671L322.034 415.787L331.947 410.076L321.332 403.958Z" fill="#75BCFF"/>
<path d="M320.352 327.897L310.439 333.61L321.055 339.726L330.968 334.014L320.352 327.897Z" fill="#75BCFF"/>
<path d="M287.879 346.608L277.965 352.32L288.581 358.437L298.495 352.724L287.879 346.608Z" fill="#75BCFF"/>
<path d="M304.196 337.21L294.282 342.922L304.898 349.039L314.811 343.327L304.196 337.21Z" fill="#75BCFF"/>
<path d="M271.722 355.921L261.809 361.633L272.424 367.749L282.338 362.037L271.722 355.921Z" fill="#75BCFF"/>
<path d="M254.835 365.646L244.922 371.357L304.017 405.405L313.931 399.693L254.835 365.646Z" fill="#75BCFF"/>
<path d="M286.883 308.615L276.97 314.327L287.585 320.443L297.498 314.732L286.883 308.615Z" fill="#75BCFF"/>
<path d="M254.409 327.326L244.496 333.038L255.112 339.154L265.025 333.442L254.409 327.326Z" fill="#75BCFF"/>
<path d="M270.723 317.924L260.81 323.636L271.425 329.752L281.339 324.04L270.723 317.924Z" fill="#75BCFF"/>
<path d="M238.249 336.635L228.336 342.346L238.951 348.463L248.865 342.752L238.249 336.635Z" fill="#75BCFF"/>
<path d="M221.365 346.363L211.453 352.075L222.068 358.191L231.982 352.479L221.365 346.363Z" fill="#75BCFF"/>
<path d="M419.814 385.204L409.901 390.916L420.516 397.032L430.429 391.32L419.814 385.204Z" fill="#75BCFF"/>
<path d="M387.34 403.915L377.427 409.626L388.042 415.742L397.956 410.031L387.34 403.915Z" fill="#75BCFF"/>
<path d="M403.657 394.514L393.744 400.225L404.359 406.341L414.273 400.63L403.657 394.514Z" fill="#75BCFF"/>
<path d="M371.18 413.224L361.266 418.936L371.882 425.052L381.796 419.341L371.18 413.224Z" fill="#75BCFF"/>
<path d="M354.296 422.953L344.383 428.664L354.999 434.78L364.913 429.069L354.296 422.953Z" fill="#75BCFF"/>
<path d="M353.321 346.891L343.408 352.602L354.023 358.719L363.937 353.006L353.321 346.891Z" fill="#75BCFF"/>
<path d="M320.844 365.601L310.93 371.313L321.546 377.429L331.46 371.718L320.844 365.601Z" fill="#75BCFF"/>
<path d="M337.161 356.203L327.247 361.916L337.863 368.032L347.777 362.32L337.161 356.203Z" fill="#75BCFF"/>
<path d="M304.687 374.914L294.774 380.626L305.389 386.742L315.303 381.03L304.687 374.914Z" fill="#75BCFF"/>
<path d="M270.351 299.089L260.438 304.8L271.053 310.916L280.967 305.205L270.351 299.089Z" fill="#75BCFF"/>
<path d="M237.877 317.799L227.964 323.51L238.58 329.626L248.493 323.915L237.877 317.799Z" fill="#75BCFF"/>
<path d="M254.191 308.397L244.278 314.109L254.893 320.225L264.807 314.514L254.191 308.397Z" fill="#75BCFF"/>
<path d="M221.717 327.108L211.803 332.82L222.419 338.936L232.332 333.225L221.717 327.108Z" fill="#75BCFF"/>
<path d="M204.833 336.836L194.92 342.547L205.536 348.664L215.449 342.953L204.833 336.836Z" fill="#75BCFF"/>
<path d="M403.282 375.68L393.368 381.391L403.984 387.508L413.898 381.796L403.282 375.68Z" fill="#75BCFF"/>
<path d="M370.808 394.391L360.895 400.102L371.51 406.219L381.423 400.507L370.808 394.391Z" fill="#75BCFF"/>
<path d="M387.125 384.99L377.212 390.701L387.827 396.818L397.741 391.106L387.125 384.99Z" fill="#75BCFF"/>
<path d="M354.651 403.7L344.738 409.412L355.354 415.528L365.266 409.816L354.651 403.7Z" fill="#75BCFF"/>
<path d="M337.764 413.428L327.851 419.14L338.467 425.256L348.38 419.544L337.764 413.428Z" fill="#75BCFF"/>
<path d="M336.789 337.367L326.876 343.079L337.492 349.195L347.405 343.484L336.789 337.367Z" fill="#75BCFF"/>
<path d="M304.312 356.078L294.398 361.789L305.014 367.906L314.927 362.194L304.312 356.078Z" fill="#75BCFF"/>
<path d="M320.629 346.676L310.716 352.388L321.331 358.505L331.244 352.793L320.629 346.676Z" fill="#75BCFF"/>
<path d="M288.155 365.387L278.241 371.099L288.857 377.215L298.771 371.504L288.155 365.387Z" fill="#75BCFF"/>
<path d="M303.316 318.084L293.403 323.796L304.018 329.913L313.932 324.201L303.316 318.084Z" fill="#75BCFF"/>
<path d="M270.842 336.795L260.929 342.507L271.544 348.623L281.458 342.912L270.842 336.795Z" fill="#75BCFF"/>
<path d="M287.159 327.394L277.246 333.106L287.861 339.222L297.775 333.511L287.159 327.394Z" fill="#75BCFF"/>
<path d="M254.682 346.105L244.769 351.816L255.384 357.933L265.297 352.221L254.682 346.105Z" fill="#75BCFF"/>
<path d="M237.799 355.829L227.885 361.541L238.501 367.657L248.415 361.945L237.799 355.829Z" fill="#75BCFF"/>
<path d="M369.754 356.36L359.841 362.072L370.457 368.188L380.37 362.477L369.754 356.36Z" fill="#75BCFF"/>
<path d="M337.28 375.071L327.367 380.782L337.982 386.899L347.896 381.187L337.28 375.071Z" fill="#75BCFF"/>
<path d="M353.594 365.67L343.681 371.382L354.296 377.498L364.21 371.786L353.594 365.67Z" fill="#75BCFF"/>
<path d="M321.12 384.38L311.207 390.092L321.822 396.208L331.736 390.496L321.12 384.38Z" fill="#75BCFF"/>
<path d="M401.481 223.922L491.716 275.913L477.089 385.448L386.854 333.457L401.481 223.922Z" fill="#000C91"/>
<path d="M396.583 142.86C397.428 142.374 398.509 142.392 399.621 143.032L526.246 215.904C528.461 217.178 529.968 220.436 529.611 223.175L522.847 274.958C522.669 276.321 522.062 277.301 521.224 277.783V277.784H521.224C521.15 277.826 521.075 277.865 520.998 277.899L517.134 279.562L517.257 276.006L392.257 204.071C390.043 202.797 388.535 199.538 388.893 196.799L395.412 146.894L392.703 144.53L396.583 142.86Z" fill="#A8D4FF"/>
<path d="M525.51 224.959C525.868 222.219 524.36 218.961 522.146 217.687L395.531 144.809C393.317 143.535 391.229 144.723 390.871 147.463L384.107 199.247C383.749 201.986 385.257 205.244 387.472 206.518L514.087 279.396C516.301 280.671 518.389 279.482 518.747 276.743L525.51 224.959Z" fill="#ECF5FF"/>
<path d="M418.933 166.954C429.462 173.262 436.784 187.502 435.317 198.912C435.047 201.015 434.495 202.877 433.709 204.478L425.262 195.237C425.467 194.652 425.617 194.011 425.706 193.318C426.438 187.624 422.825 180.532 417.602 177.311L418.933 166.954Z" fill="#3DB1FF"/>
<path d="M418.933 166.954L417.602 177.311L417.302 177.127C411.917 173.993 406.939 176.16 406.193 181.962C406.104 182.655 406.08 183.368 406.116 184.094L396.635 182.901C396.34 180.671 396.312 178.472 396.582 176.368C398.063 164.85 407.944 160.55 418.633 166.771L418.933 166.954Z" fill="#BA5AF2"/>
<path d="M425.261 195.237L433.706 204.477C430.199 211.649 422.002 213.594 413.265 208.509C404.527 203.424 397.936 192.873 396.633 182.901L406.114 184.093C406.368 189.437 409.854 195.393 414.596 198.152C419.338 200.913 423.763 199.562 425.261 195.237Z" fill="#5077FF"/>
<path d="M501.406 225.692C501.529 224.746 501.009 223.622 500.245 223.182L444.058 190.823C443.294 190.383 442.572 190.794 442.449 191.738L442.208 193.588C442.084 194.533 442.604 195.658 443.368 196.097L499.557 228.456C500.321 228.896 501.041 228.486 501.165 227.541L501.406 225.692Z" fill="#67B4FF"/>
<path d="M460.071 213.922C460.195 212.977 459.675 211.853 458.91 211.413L442.674 202.074C441.911 201.633 441.19 202.044 441.066 202.989L440.824 204.839C440.701 205.784 441.222 206.908 441.985 207.347L458.221 216.687C458.986 217.127 459.706 216.717 459.829 215.772L460.071 213.922Z" fill="#67B4FF"/>
<path d="M506.832 240.865C506.956 239.92 506.436 238.796 505.671 238.356L465.599 215.283C464.835 214.843 464.114 215.253 463.991 216.198L463.749 218.047C463.625 218.992 464.145 220.117 464.909 220.557L504.982 243.63C505.747 244.07 506.467 243.66 506.59 242.714L506.832 240.865Z" fill="#67B4FF"/>
<path d="M476.026 235.582C476.15 234.637 475.63 233.513 474.866 233.073L440.815 213.469C440.051 213.029 439.331 213.439 439.207 214.385L438.965 216.234C438.842 217.179 439.363 218.304 440.126 218.743L474.177 238.347C474.941 238.787 475.662 238.376 475.785 237.431L476.026 235.582Z" fill="#67B4FF"/>
<path d="M503.271 251.287C503.395 250.342 502.874 249.218 502.111 248.778L482.228 237.331C481.464 236.892 480.744 237.302 480.62 238.246L480.378 240.096C480.255 241.041 480.775 242.165 481.539 242.605L501.422 254.052C502.186 254.492 502.907 254.082 503.03 253.136L503.271 251.287Z" fill="#67B4FF"/>
<path d="M272.517 71.5875C273.482 71.0313 274.716 71.0528 275.985 71.7836L375.95 129.307C378.478 130.763 380.2 134.484 379.791 137.611L360.403 286.052C360.2 287.608 359.507 288.726 358.551 289.278C358.467 289.326 358.38 289.37 358.292 289.409L353.88 291.308L354.02 287.248L255.912 230.792C253.383 229.337 251.662 225.616 252.071 222.489L271.178 76.1922L268.086 73.4938L272.517 71.5875Z" fill="#98CCFF"/>
<path d="M375.109 139.647C375.517 136.52 373.796 132.799 371.267 131.344L271.316 73.8125C268.787 72.3572 266.403 73.7147 265.995 76.8423L246.607 225.284C246.198 228.412 247.919 232.132 250.447 233.587L350.4 291.119C352.928 292.574 355.313 291.217 355.721 288.089L375.109 139.647Z" fill="#ECF5FF"/>
<path d="M270.798 210.838L256.618 202.668L254.935 214.908L269.116 223.079L270.798 210.838Z" fill="#67B4FF"/>
<path d="M309.38 183.473L295.2 175.302L287.198 233.499L301.379 241.67L309.38 183.473Z" fill="#67B4FF"/>
<path d="M340.415 211.671L326.234 203.5L319.548 252.136L333.729 260.306L340.415 211.671Z" fill="#67B4FF"/>
<path d="M289.356 203.338L275.175 195.167L271.175 224.266L285.356 232.436L289.356 203.338Z" fill="#67B4FF"/>
<path d="M322.328 216.779L308.147 208.609L303.438 242.856L317.619 251.027L322.328 216.779Z" fill="#67B4FF"/>
<path d="M357.97 211.469L343.79 203.298L335.789 261.494L349.969 269.665L357.97 211.469Z" fill="#67B4FF"/>
<path d="M264.389 208.098L282.947 200.598C283.033 200.564 283.107 200.513 283.173 200.449L302.083 181.69L314.207 212.878C314.357 213.262 314.618 213.609 314.929 213.833C315.241 214.058 315.574 214.141 315.849 214.064L333.838 208.983L351.288 208.781C351.89 208.774 352.196 208.142 351.97 207.371C351.746 206.6 351.074 205.979 350.472 205.986L332.917 206.188C332.846 206.189 332.778 206.199 332.715 206.216L315.694 211.024L303.324 179.204C303.142 178.736 302.796 178.331 302.405 178.127C302.014 177.923 301.631 177.947 301.384 178.192L281.457 197.959L263.026 205.408C262.505 205.618 262.387 206.391 262.763 207.134C263.139 207.877 263.868 208.308 264.389 208.098Z" fill="#FF7BB8"/>
<path d="M264.171 203.377C265.916 204.383 267.125 206.711 266.868 208.575C266.612 210.438 264.987 211.134 263.243 210.129C261.497 209.123 260.289 206.794 260.545 204.931C260.801 203.068 262.426 202.372 264.171 203.377Z" fill="#FF7BB8"/>
<path d="M282.793 195.404C284.538 196.409 285.747 198.739 285.491 200.602C285.235 202.465 283.609 203.161 281.865 202.156C280.12 201.15 278.911 198.822 279.167 196.958C279.423 195.095 281.048 194.399 282.793 195.404Z" fill="#FF7BB8"/>
<path d="M302.821 175.539C304.566 176.545 305.776 178.874 305.519 180.737C305.263 182.6 303.638 183.296 301.893 182.291C300.148 181.286 298.939 178.957 299.195 177.093C299.452 175.23 301.077 174.534 302.821 175.539Z" fill="#FF7BB8"/>
<path d="M315.769 208.845C317.514 209.851 318.723 212.18 318.467 214.043C318.21 215.907 316.585 216.603 314.84 215.598C313.095 214.592 311.887 212.263 312.143 210.4C312.399 208.537 314.024 207.84 315.769 208.845Z" fill="#FF7BB8"/>
<path d="M333.853 203.738C335.598 204.743 336.806 207.072 336.55 208.935C336.294 210.798 334.669 211.495 332.925 210.489C331.18 209.484 329.971 207.154 330.227 205.292C330.482 203.429 332.107 202.732 333.853 203.738Z" fill="#FF7BB8"/>
<path d="M351.343 204.007C353.088 205.013 354.297 207.342 354.041 209.204C353.784 211.068 352.16 211.765 350.415 210.76C348.67 209.754 347.461 207.425 347.717 205.562C347.974 203.698 349.598 203.002 351.343 204.007Z" fill="#FF7BB8"/>
<path d="M307.992 129.999C308.133 128.919 307.54 127.636 306.667 127.134L277.314 110.238C276.441 109.736 275.619 110.205 275.478 111.284L275.202 113.395C275.061 114.475 275.655 115.758 276.528 116.26L305.88 133.156C306.753 133.658 307.575 133.19 307.717 132.11L307.992 129.999Z" fill="#67B4FF"/>
<path d="M287.415 132.583C287.556 131.504 286.962 130.22 286.09 129.718L275.092 123.398C274.22 122.896 273.397 123.365 273.256 124.444L272.98 126.556C272.84 127.635 273.433 128.918 274.306 129.42L285.304 135.74C286.175 136.242 286.998 135.774 287.139 134.695L287.415 132.583Z" fill="#67B4FF"/>
<path d="M360.129 174.477C360.27 173.398 359.676 172.114 358.804 171.612L294.644 134.662C293.772 134.16 292.949 134.628 292.808 135.707L292.532 137.819C292.391 138.899 292.985 140.182 293.858 140.684L358.017 177.634C358.889 178.136 359.712 177.668 359.853 176.588L360.129 174.477Z" fill="#67B4FF"/>
<path d="M339.33 177.926C339.472 176.847 338.877 175.563 338.005 175.06L273.846 138.111C272.973 137.608 272.15 138.077 272.009 139.157L271.734 141.268C271.593 142.347 272.186 143.631 273.059 144.133L337.218 181.082C338.091 181.585 338.913 181.116 339.054 180.037L339.33 177.926Z" fill="#67B4FF"/>
<path d="M344.773 151.19C344.915 150.112 344.321 148.828 343.449 148.326L314.096 131.431C313.223 130.928 312.401 131.397 312.259 132.476L311.984 134.587C311.843 135.667 312.437 136.95 313.309 137.452L342.663 154.348C343.535 154.85 344.357 154.381 344.499 153.302L344.773 151.19Z" fill="#67B4FF"/>
<path d="M406.236 234.08L485.121 279.532L472.334 375.29L393.448 329.838L406.236 234.08Z" fill="#00053E"/>
<path d="M333.606 315.552L395.619 279.823V331.1L333.606 366.829V315.552Z" fill="#0089E4"/>
<path d="M331.427 314.296L393.44 278.567L395.621 279.823L333.608 315.553L331.427 314.296Z" fill="#BFE0FF"/>
<path d="M456.694 362.579C457.615 362.049 458.186 360.897 458.186 359.26L458.332 285.398C458.332 282.175 456.115 278.28 453.385 276.708L409.656 251.582C408.277 250.787 407.029 250.736 406.132 251.295L405.013 251.939L406.022 252.521C405.917 252.933 405.862 253.397 405.862 253.908C405.862 253.908 408.444 292.032 410.231 336.668L454.392 361.586C454.749 361.791 455.097 361.947 455.433 362.056V363.305L456.694 362.579Z" fill="#E9F4FF"/>
<path d="M452.124 277.432C454.854 279.005 457.071 282.899 457.071 286.123L456.926 359.984C456.926 363.208 454.71 364.547 451.979 362.974L407.817 338.057C405.087 336.484 402.87 332.589 402.87 329.366L403.448 255.296C403.448 252.073 405.665 250.733 408.395 252.306L452.124 277.432Z" fill="#B7DCFF"/>
<path d="M445.508 298.009C445.992 298.288 446.385 298.979 446.385 299.551V301.871C446.385 302.444 445.992 302.681 445.508 302.402L412 283.123C411.516 282.844 411.123 282.153 411.123 281.581L411.199 279.224C411.199 278.652 411.593 278.415 412.077 278.693L445.508 298.009Z" fill="#94CBFF"/>
<path d="M445.508 310.283C445.992 310.562 446.385 311.253 446.385 311.826V314.145C446.385 314.717 445.992 314.955 445.508 314.676L412 295.398C411.516 295.118 411.123 294.427 411.123 293.856L411.199 291.499C411.199 290.927 411.593 290.689 412.077 290.968L445.508 310.283Z" fill="#94CBFF"/>
<path d="M445.508 286.453C445.992 286.732 446.385 287.423 446.385 287.995V290.315C446.385 290.887 445.992 291.125 445.508 290.846L412 271.568C411.516 271.288 411.123 270.598 411.123 270.025L411.199 267.668C411.199 267.096 411.593 266.858 412.077 267.138L445.508 286.453Z" fill="#94CBFF"/>
<path d="M445.508 322.642C445.992 322.921 446.385 323.612 446.385 324.184V326.504C446.385 327.076 445.992 327.314 445.508 327.035L412 307.757C411.516 307.477 411.123 306.786 411.123 306.215L411.199 303.858C411.199 303.285 411.593 303.047 412.077 303.327L445.508 322.642Z" fill="#94CBFF"/>
<path d="M445.508 335.103C445.992 335.383 446.385 336.074 446.385 336.646V338.966C446.385 339.538 445.992 339.776 445.508 339.497L412 320.219C411.516 319.94 411.123 319.249 411.123 318.676L411.199 316.319C411.199 315.748 411.593 315.509 412.077 315.789L445.508 335.103Z" fill="#94CBFF"/>
<path d="M445.508 346.241C445.992 346.52 446.385 347.211 446.385 347.783V350.103C446.385 350.675 445.992 350.913 445.508 350.634L412 331.355C411.516 331.076 411.123 330.385 411.123 329.813L411.199 327.456C411.199 326.885 411.593 326.647 412.077 326.925L445.508 346.241Z" fill="#94CBFF"/>
<path d="M451.541 366.562C452.461 366.031 453.033 364.88 453.033 363.243L453.178 289.381C453.178 286.157 450.962 282.263 448.231 280.69L404.502 255.565C403.123 254.77 401.875 254.719 400.977 255.278L399.859 255.922L400.868 256.504C400.764 256.916 400.708 257.38 400.708 257.891C400.708 257.891 403.291 296.015 405.076 340.651L449.238 365.569C449.595 365.774 449.943 365.93 450.279 366.038V367.288L451.541 366.562Z" fill="#E9F4FF"/>
<path d="M446.97 281.416C449.7 282.989 451.917 286.883 451.917 290.106L451.771 363.968C451.771 367.191 449.555 368.531 446.825 366.958L402.663 342.04C399.933 340.467 397.716 336.573 397.716 333.35L398.294 259.28C398.294 256.057 400.511 254.717 403.241 256.29L446.97 281.416Z" fill="#B7DCFF"/>
<path d="M440.353 301.995C440.838 302.273 441.231 302.965 441.231 303.537V305.857C441.231 306.428 440.838 306.667 440.353 306.387L406.846 287.109C406.362 286.83 405.969 286.139 405.969 285.567L406.046 283.21C406.046 282.638 406.439 282.399 406.923 282.679L440.353 301.995Z" fill="#94CBFF"/>
<path d="M440.353 314.266C440.838 314.544 441.231 315.236 441.231 315.807V318.128C441.231 318.699 440.838 318.938 440.353 318.658L406.846 299.38C406.362 299.101 405.969 298.41 405.969 297.838L406.046 295.481C406.046 294.909 406.439 294.671 406.923 294.951L440.353 314.266Z" fill="#94CBFF"/>
<path d="M440.353 290.435C440.838 290.715 441.231 291.405 441.231 291.978V294.298C441.231 294.87 440.838 295.108 440.353 294.829L406.846 275.55C406.362 275.271 405.969 274.58 405.969 274.008L406.046 271.651C406.046 271.079 406.439 270.842 406.923 271.121L440.353 290.435Z" fill="#94CBFF"/>
<path d="M440.353 326.625C440.838 326.903 441.231 327.595 441.231 328.166V330.487C441.231 331.059 440.838 331.297 440.353 331.018L406.846 311.739C406.362 311.46 405.969 310.769 405.969 310.197L406.046 307.84C406.046 307.268 406.439 307.03 406.923 307.31L440.353 326.625Z" fill="#94CBFF"/>
<path d="M440.353 339.089C440.838 339.369 441.231 340.059 441.231 340.631V342.952C441.231 343.523 440.838 343.761 440.353 343.482L406.846 324.204C406.362 323.925 405.969 323.233 405.969 322.662L406.046 320.305C406.046 319.732 406.439 319.495 406.923 319.774L440.353 339.089Z" fill="#94CBFF"/>
<path d="M440.353 350.227C440.838 350.506 441.231 351.197 441.231 351.769V354.089C441.231 354.661 440.838 354.899 440.353 354.62L406.846 335.341C406.362 335.062 405.969 334.371 405.969 333.799L406.046 331.442C406.046 330.87 406.439 330.632 406.923 330.912L440.353 350.227Z" fill="#94CBFF"/>
<path d="M446.68 371.687C447.6 371.157 448.173 370.006 448.173 368.369L448.318 294.507C448.318 291.283 446.101 287.389 443.372 285.816L399.642 260.691C398.263 259.897 397.015 259.845 396.118 260.405L394.999 261.048L396.008 261.63C395.904 262.043 395.848 262.506 395.848 263.017C395.848 263.017 398.431 301.141 400.217 345.777L444.379 370.695C444.736 370.9 445.084 371.057 445.42 371.164V372.414L446.68 371.687Z" fill="#E9F4FF"/>
<path d="M442.113 286.545C444.844 288.118 447.06 292.012 447.06 295.236L446.915 369.097C446.915 372.321 444.698 373.66 441.968 372.088L397.806 347.169C395.076 345.597 392.859 341.702 392.859 338.479L393.437 264.41C393.437 261.187 395.654 259.846 398.384 261.42L442.113 286.545Z" fill="#D9ECFF"/>
<path d="M393.435 273.942L404.942 280.557L408.152 286.961L447.044 309.319L446.912 369.081C446.912 372.312 444.696 373.658 441.965 372.085L397.803 347.168C395.073 345.595 392.856 341.695 392.856 338.465L393.435 273.942Z" fill="#C0DFFF"/>
<path d="M435.496 307.121C435.981 307.4 436.374 308.091 436.374 308.662V310.983C436.374 311.555 435.981 311.793 435.496 311.514L401.989 292.235C401.505 291.956 401.112 291.265 401.112 290.693L401.189 288.336C401.189 287.764 401.582 287.527 402.066 287.805L435.496 307.121Z" fill="#94CBFF"/>
<path d="M435.496 319.395C435.981 319.674 436.374 320.365 436.374 320.937V323.258C436.374 323.829 435.981 324.067 435.496 323.788L401.989 304.509C401.505 304.231 401.112 303.539 401.112 302.968L401.189 300.61C401.189 300.039 401.582 299.801 402.066 300.08L435.496 319.395Z" fill="#94CBFF"/>
<path d="M435.496 295.565C435.981 295.844 436.374 296.535 436.374 297.107V299.427C436.374 299.999 435.981 300.237 435.496 299.958L401.989 280.679C401.505 280.401 401.112 279.709 401.112 279.137L401.189 276.78C401.189 276.209 401.582 275.97 402.066 276.249L435.496 295.565Z" fill="#94CBFF"/>
<path d="M435.496 331.754C435.981 332.033 436.374 332.724 436.374 333.296V335.617C436.374 336.188 435.981 336.426 435.496 336.147L401.989 316.869C401.505 316.589 401.112 315.898 401.112 315.327L401.189 312.969C401.189 312.397 401.582 312.159 402.066 312.438L435.496 331.754Z" fill="#94CBFF"/>
<path d="M435.496 344.216C435.981 344.495 436.374 345.185 436.374 345.758V348.078C436.374 348.649 435.981 348.887 435.496 348.608L401.989 329.33C401.505 329.051 401.112 328.36 401.112 327.788L401.189 325.431C401.189 324.859 401.582 324.621 402.066 324.9L435.496 344.216Z" fill="#94CBFF"/>
<path d="M435.496 355.353C435.981 355.631 436.374 356.323 436.374 356.895V359.215C436.374 359.787 435.981 360.025 435.496 359.745L401.989 340.467C401.505 340.189 401.112 339.497 401.112 338.925L401.189 336.568C401.189 335.996 401.582 335.759 402.066 336.038L435.496 355.353Z" fill="#94CBFF"/>
<path d="M378.701 275.911C379.576 275.288 380.86 275.336 382.328 276.181L397.021 284.647C398.474 285.484 399.926 287.066 400.896 289.112L403.801 295.253C404.125 295.997 404.609 296.462 405.093 296.741L440.453 317.114C443.037 318.603 445.297 322.51 445.297 325.487V373.862C445.297 375.329 444.845 376.375 444.087 376.919H444.086C443.969 377.003 443.843 377.076 443.711 377.135L438.83 379.948V375.717L382.328 343.162C379.583 341.58 377.484 337.952 377.484 334.789V280.851L373.805 278.732L378.701 275.911Z" fill="#B15CFF"/>
<mask id="mask1_281_439" style="mask-type:luminance" maskUnits="userSpaceOnUse" x="373" y="275" width="73" height="105">
<path d="M378.701 275.911C379.576 275.288 380.86 275.336 382.328 276.181L397.021 284.647C398.474 285.484 399.926 287.066 400.896 289.112L403.801 295.253C404.125 295.997 404.609 296.462 405.093 296.741L440.453 317.114C443.037 318.603 445.297 322.51 445.297 325.487V373.862C445.297 375.329 444.845 376.375 444.087 376.919H444.086C443.969 377.003 443.843 377.076 443.711 377.135L438.83 379.948V375.717L382.328 343.162C379.583 341.58 377.484 337.952 377.484 334.789V280.851L373.805 278.732L378.701 275.911Z" fill="white"/>
</mask>
<g mask="url(#mask1_281_439)">
<path d="M379.492 274.548L372.227 278.734L391.761 289.989L399.027 285.804L379.492 274.548Z" fill="#C17EFF"/>
<path d="M406.593 297.604L399.027 301.964L434.241 322.254L441.808 317.894L406.593 297.605V297.604Z" fill="#C17EFF"/>
</g>
<path d="M435.197 320.144L399.837 299.771C399.353 299.491 398.868 299.026 398.546 298.282L395.639 292.143C394.671 290.096 393.217 288.514 391.764 287.677L377.071 279.211C374.326 277.63 372.227 278.839 372.227 282.001V337.819C372.227 340.982 374.326 344.61 377.071 346.192L435.196 379.682C437.941 381.264 440.04 380.055 440.04 376.891V328.516C440.04 325.54 437.78 321.633 435.197 320.144Z" fill="#771EFF"/>
<path d="M370.501 280.636C371.378 280.013 372.66 280.061 374.128 280.907L388.821 289.372C390.274 290.21 391.727 291.791 392.696 293.838L395.602 299.977C395.925 300.722 396.409 301.187 396.894 301.466L432.254 321.84C434.837 323.328 437.097 327.235 437.097 330.213V378.587C437.097 380.054 436.646 381.101 435.888 381.644C435.77 381.729 435.644 381.801 435.511 381.861L430.631 384.673V380.443L374.128 347.888C371.383 346.306 369.284 342.678 369.284 339.515V285.576L365.606 283.456L370.501 280.636Z" fill="#B15CFF"/>
<mask id="mask2_281_439" style="mask-type:luminance" maskUnits="userSpaceOnUse" x="365" y="280" width="73" height="105">
<path d="M370.501 280.636C371.378 280.013 372.66 280.061 374.128 280.907L388.821 289.372C390.274 290.21 391.727 291.791 392.696 293.838L395.602 299.977C395.925 300.722 396.409 301.187 396.894 301.466L432.254 321.84C434.837 323.328 437.097 327.235 437.097 330.213V378.587C437.097 380.054 436.646 381.101 435.888 381.644C435.77 381.729 435.644 381.801 435.511 381.861L430.631 384.673V380.443L374.128 347.888C371.383 346.306 369.284 342.678 369.284 339.515V285.576L365.606 283.456L370.501 280.636Z" fill="white"/>
</mask>
<g mask="url(#mask2_281_439)">
<path d="M371.292 279.273L364.027 283.459L383.562 294.714L390.827 290.528L371.292 279.273Z" fill="#C17EFF"/>
<path d="M398.394 302.332L390.827 306.692L426.041 326.981L433.609 322.622L398.394 302.332Z" fill="#C17EFF"/>
</g>
<path d="M426.994 324.868L391.634 304.495C391.15 304.216 390.666 303.751 390.343 303.006L387.436 296.866C386.468 294.82 385.015 293.238 383.561 292.401L368.868 283.935C366.124 282.354 364.025 283.564 364.025 286.726V342.543C364.025 345.706 366.124 349.334 368.868 350.916L426.994 384.407C429.739 385.988 431.837 384.779 431.837 381.616V333.24C431.837 330.264 429.577 326.357 426.994 324.868Z" fill="#771EFF"/>
<path d="M361.923 285.575C362.799 284.953 364.082 285.001 365.551 285.847L380.243 294.312C381.696 295.15 383.149 296.731 384.118 298.778L387.025 304.918C387.348 305.661 387.832 306.127 388.316 306.406L423.676 326.779C426.259 328.267 428.52 332.174 428.52 335.152V383.527C428.52 384.993 428.068 386.04 427.31 386.583L427.309 386.584C427.192 386.668 427.066 386.741 426.934 386.8L422.052 389.612V385.382L365.55 352.827C362.805 351.246 360.706 347.618 360.706 344.454V290.516L357.027 288.396L361.923 285.575Z" fill="#B15CFF"/>
<mask id="mask3_281_439" style="mask-type:luminance" maskUnits="userSpaceOnUse" x="357" y="285" width="72" height="105">
<path d="M361.923 285.575C362.799 284.953 364.082 285.001 365.551 285.847L380.243 294.312C381.696 295.15 383.149 296.731 384.118 298.778L387.025 304.918C387.348 305.661 387.832 306.127 388.316 306.406L423.676 326.779C426.259 328.267 428.52 332.174 428.52 335.152V383.527C428.52 384.993 428.068 386.04 427.31 386.583L427.309 386.584C427.192 386.668 427.066 386.741 426.934 386.8L422.052 389.612V385.382L365.55 352.827C362.805 351.246 360.706 347.618 360.706 344.454V290.516L357.027 288.396L361.923 285.575Z" fill="white"/>
</mask>
<g mask="url(#mask3_281_439)">
<path d="M362.714 284.214L355.449 288.399L374.983 299.655L382.249 295.469L362.714 284.214Z" fill="#C17EFF"/>
<path d="M389.816 307.271L382.249 311.631L417.463 331.92L425.031 327.56L389.816 307.27V307.271Z" fill="#C17EFF"/>
</g>
<path d="M418.419 329.811L383.059 309.438C382.575 309.158 382.09 308.693 381.768 307.949L378.861 301.809C377.892 299.762 376.439 298.181 374.986 297.344L360.293 288.878C357.548 287.297 355.449 288.506 355.449 291.669V347.486C355.449 350.649 357.548 354.278 360.293 355.859L418.419 389.349C421.163 390.93 423.263 389.721 423.263 386.558V338.183C423.262 335.206 421.002 331.299 418.419 329.811Z" fill="#771EFF"/>
<path d="M353.993 290.146C354.87 289.523 356.152 289.572 357.62 290.417L372.313 298.883C373.766 299.72 375.219 301.302 376.188 303.348L379.095 309.488C379.417 310.232 379.901 310.698 380.386 310.977L415.746 331.35C418.329 332.838 420.589 336.746 420.589 339.723V388.097C420.589 389.565 420.137 390.612 419.379 391.154C419.262 391.239 419.136 391.311 419.004 391.371L414.123 394.183V389.953L357.62 357.398C354.876 355.816 352.776 352.188 352.776 349.025V295.087L349.098 292.967L353.993 290.146Z" fill="#B15CFF"/>
<mask id="mask4_281_439" style="mask-type:luminance" maskUnits="userSpaceOnUse" x="349" y="289" width="72" height="106">
<path d="M353.993 290.146C354.87 289.523 356.152 289.572 357.62 290.417L372.313 298.883C373.766 299.72 375.219 301.302 376.188 303.348L379.095 309.488C379.417 310.232 379.901 310.698 380.386 310.977L415.746 331.35C418.329 332.838 420.589 336.746 420.589 339.723V388.097C420.589 389.565 420.137 390.612 419.379 391.154C419.262 391.239 419.136 391.311 419.004 391.371L414.123 394.183V389.953L357.62 357.398C354.876 355.816 352.776 352.188 352.776 349.025V295.087L349.098 292.967L353.993 290.146Z" fill="white"/>
</mask>
<g mask="url(#mask4_281_439)">
<path d="M354.785 288.784L347.519 292.971L367.054 304.226L374.319 300.04L354.785 288.784Z" fill="#C17EFF"/>
<path d="M381.886 311.842L374.319 316.202L409.533 336.492L417.1 332.132L381.886 311.842Z" fill="#C17EFF"/>
</g>
<path d="M410.489 334.378L375.129 314.005C374.645 313.726 374.16 313.261 373.838 312.517L370.932 306.377C369.962 304.33 368.51 302.748 367.056 301.911L352.363 293.446C349.619 291.864 347.52 293.074 347.52 296.237V352.054C347.52 355.217 349.619 358.845 352.363 360.427L410.489 393.918C413.234 395.499 415.333 394.289 415.333 391.127V342.751C415.332 339.775 413.072 335.867 410.489 334.378Z" fill="#771EFF"/>
<path d="M415.332 353.021L347.519 315.092V352.055C347.519 355.218 349.618 358.846 352.363 360.428L410.488 393.918C413.233 395.5 415.332 394.291 415.332 391.127L415.332 353.021Z" fill="#6300FA"/>
<path d="M370.784 371.041L385.877 320.199L379.917 316.764C379.433 316.486 359.483 364.53 362.229 366.111L370.784 371.041Z" fill="#6300FA"/>
<path d="M331.427 314.296L410.313 359.748V411.025L331.427 365.573V314.296Z" fill="#A1D1FF"/>
<path d="M331.427 314.296L366.554 334.535L370.87 388.299L331.428 365.573L331.427 314.296Z" fill="#8CC7FF"/>
<path d="M410.312 359.747L479.743 319.742L472.323 375.295L410.311 411.024L410.312 359.747Z" fill="#C2E1FF"/>
<path d="M474.198 322.938L479.743 319.743L472.323 375.296L467.276 378.204L474.198 322.938L474.198 322.938Z" fill="#A2D1FF"/>
<path d="M408.132 358.491L480.125 317.011L479.746 319.743L410.312 359.748L408.132 358.491Z" fill="#DFEFFF"/>
<path d="M331.427 314.296L333.608 313.04L412.494 358.491L410.313 359.748L331.427 314.296Z" fill="#DFEFFF"/>
<path d="M363.035 347.194L377.306 355.417V363.072L363.035 354.849V347.194Z" fill="#C167FF"/>
<path d="M377.302 355.418L381.417 353.047V360.703L377.302 363.073V355.418Z" fill="#AA2EFF"/>
<path d="M367.186 344.845L381.417 353.045L377.303 355.416L363.071 347.216L367.186 344.845Z" fill="#FEEBFF"/>
<path d="M367.186 344.845L381.056 352.837L377.305 354.998L363.434 347.007L367.186 344.845Z" fill="#D9A2FF"/>
<path d="M334.521 301.862C337.866 302.509 337.21 315.203 338.532 324.471C338.532 324.471 352.822 342.988 351.12 343.189C341.954 348.763 328.392 319.148 329.181 311.744C329.569 308.117 329.581 305.686 331.978 303.03C332.433 302.525 333.115 302.275 333.734 301.992C333.976 301.88 334.256 301.871 334.521 301.862Z" fill="#CFE7FF"/>
<path d="M348.614 411.29C348.614 411.29 351.614 411.98 350.84 413.81C350.072 415.648 345.43 419.762 344.95 420.926C344.461 422.08 341.715 426.278 340.752 425.895C339.78 425.506 333.582 426.86 336.371 417.568C337.731 413.04 344.367 411.093 348.614 411.29Z" fill="#000847"/>
<path d="M351.797 431.064C351.797 431.064 353.944 434.497 357.773 433.337C361.603 432.175 359.776 430.544 368.005 427.869C376.249 425.187 374.029 419.998 373.341 419.277C372.668 418.57 367.006 420.083 365.196 420.657C363.391 421.226 359.988 422.342 359.988 422.342L351.797 425.132V431.064Z" fill="#000847"/>
<path d="M336.52 348.164C336.52 348.164 337.462 380.565 337.462 383.646C337.462 386.727 334.295 406.976 336.37 417.569C336.37 417.569 341.072 422.529 346.352 416.544C346.352 416.544 346.939 405.994 347.735 395.925C348.29 388.907 348.944 382.123 349.573 379.309C351.1 372.453 350.59 351.472 350.59 351.472L336.52 348.164Z" fill="#000F71"/>
<path d="M347.004 352.051C347.004 352.051 352.356 378.667 352.082 396.271C352.082 396.271 350.656 421.982 351.475 426.993C351.475 426.993 362.71 429.777 363.839 424.497C363.839 424.497 363.548 393.903 363.839 387.508C364.112 381.114 364.775 363.285 362.238 352.994C359.709 342.708 347.004 352.051 347.004 352.051Z" fill="#000F71"/>
<path d="M351.476 426.992C349.738 412.095 352.084 396.271 352.084 396.271C353.032 367.255 340.264 371.977 340.766 355.062L354.344 358.795C354.344 358.795 359.339 371.899 358.577 391.553C357.985 406.764 357.741 421.721 357.659 427.723C354.557 427.749 351.476 426.992 351.476 426.992Z" fill="#000847"/>
<path d="M336.37 417.568C334.43 402.856 337.461 387.073 337.461 383.992C337.461 381.055 333.32 363.27 336.519 348.362L342.55 352.993C342.55 352.993 344.462 372.545 342.55 383.682C340.806 393.817 341.927 413.545 341.078 419.208C337.743 419.208 336.37 417.568 336.37 417.568Z" fill="#000847"/>
<path d="M333.59 301.739C333.59 301.739 328.437 304.438 331.565 313.212C334.691 321.993 335.68 345.365 335.029 347.626C335.029 347.626 334.299 354.915 351.049 358.92C351.049 358.92 363.903 360.065 362.965 350.832C360.98 331.269 358.759 327.576 359.035 324.106C359.317 320.632 361.263 313.667 352.49 309.164C343.715 304.657 339.136 301.29 333.59 301.739Z" fill="#EBF5FF"/>
<path d="M359.034 324.106C358.96 325.043 359.622 326.524 360.114 328.694C361.866 336.436 362.447 343.211 363.013 351.768C363.333 356.58 357.955 358.653 354.06 358.905C352.735 354.911 358.754 338.694 354.246 330.439C352.356 326.977 347.278 313.928 355.567 320.232C361.388 324.658 359.28 321.023 359.034 324.106Z" fill="#CFE7FF"/>
<path d="M339.665 297.25C339.665 297.25 340.308 301.857 338.78 304.775C337.389 307.425 348.334 309.601 348.545 307.166C348.562 306.908 346.397 302.973 348.933 298.211C350.26 295.721 339.665 297.25 339.665 297.25Z" fill="#EFB185"/>
<path d="M338.835 304.939C339.971 302.761 339.913 299.672 339.801 298.222L347.839 302.003L347.837 302.026C347.546 302.099 342.205 303.568 341.117 307.444C339.465 306.805 338.334 305.904 338.835 304.939Z" fill="#DD9569"/>
<path d="M350.597 284.823C350.597 284.823 352.478 289.218 352.197 293.045C352.111 294.213 352.512 294.549 352.85 295.399C353.537 297.123 352.514 296.643 352.351 297.952C352.253 298.735 352.668 301.681 351.419 302.519C349.952 303.503 347.561 304.268 343.99 303.049C339.672 301.567 335.033 295.768 336.756 290.433C338.496 285.098 344.054 280.634 350.596 284.823H350.597V284.823Z" fill="#EFB185"/>
<path d="M337.066 296.157C338.69 291.362 342.846 285.558 342.801 285.258C342.774 285.072 344.175 284.158 345.766 283.182C347.281 283.234 348.899 283.739 350.596 284.823C350.596 284.823 351.102 285.995 351.546 287.662C350.546 288.819 348.49 290.157 348.188 291.134C347.502 293.433 347.99 296.881 348.696 298.398C349.405 299.91 346.7 302.199 347.299 303.541L347.322 303.725C346.337 303.671 345.227 303.468 343.99 303.05C341.222 302.097 338.346 299.384 337.066 296.157Z" fill="#E6A376"/>
<path d="M350.978 285.027C350.978 285.027 351.545 287.014 348.808 288.668C346.662 289.971 346.849 293.437 346.972 294.107C347.091 294.778 347.812 297.827 347.551 298.226C347.04 298.985 345.227 296.67 344.395 296.845C342.271 297.298 343.141 299.267 345.121 301.311C347.225 303.485 341.819 304.497 339.272 302.721C337.912 301.78 337.419 301.209 335.594 297.768C332.949 292.752 332.7 286.664 338.639 283.295C344.572 279.931 349.153 282.466 350.978 285.027Z" fill="#952500"/>
<path d="M344.303 293.826C339.289 295.985 334.209 296.044 333.809 294.511C332.928 291.139 333.472 287.06 336.243 284.546C336.982 283.876 337.84 283.316 338.755 282.915C340.629 282.092 342.932 281.614 345.005 281.653C348.099 281.712 350.594 283.156 352.315 285.704C353.054 286.798 353.502 287.973 352.429 288.95C350.703 290.522 348.477 292.028 344.303 293.826Z" fill="#B32D00"/>
<path d="M352.397 311.88C355.386 310.245 362.454 319.011 369.397 325.319L380.613 311.652C380.857 310.581 381.322 308.347 381.294 307.115C381.249 305.456 382.285 304.398 382.463 304.12C384.09 301.564 385.153 301.136 387.381 302.848C389.497 304.474 388.7 305.083 390.193 307.442C390.553 308.012 389.527 309.743 388.964 310.375C388.363 311.051 387.607 311.005 387.159 311.09C386.476 312.323 385.433 313.193 384.544 314.123C381.052 324.25 372.832 332.679 372.832 332.679V332.668C371.908 333.522 370.473 333.698 370.473 333.698C363.699 332.32 357.157 325.773 352.465 318.949C349.1 314.07 352.397 311.88 352.397 311.88Z" fill="#EFB185"/>
<path d="M351.544 311.13C357.287 307.374 362.832 318.548 369.776 324.857L380.611 311.653C380.854 310.582 385.932 313.089 384.747 314.33C378.642 332.888 370.639 335.753 370.639 335.753C363.865 334.375 357.768 328.613 351.794 322.873C345.847 317.159 351.544 311.13 351.544 311.13Z" fill="#EBF5FF"/>
<path d="M475.201 103.195C478.242 101.462 480.124 97.7464 480.124 92.4597C480.124 81.888 472.598 69.0142 463.33 63.729C462.608 63.3174 461.897 62.9647 461.199 62.667C458.135 48.2794 447.969 33.1885 435.915 26.315C428.526 22.1018 421.847 21.7847 417.077 24.6795L404.517 31.8423L410.304 35.1427C410.112 36.022 409.963 36.9468 409.859 37.9134C409.057 37.3021 408.232 36.7525 407.393 36.2734C403.318 33.9492 399.625 33.7232 396.945 35.2335L383.751 42.7572L391.323 47.0749L392.633 46.3274C393.327 55.32 399.675 65.6813 407.393 70.0822C407.522 70.156 407.651 70.2274 407.779 70.2965V70.3434L462.609 101.609C462.744 101.693 462.878 101.774 463.013 101.854L462.052 102.401V110.693L475.201 103.195Z" fill="#8EC7FF"/>
<mask id="mask5_281_439" style="mask-type:luminance" maskUnits="userSpaceOnUse" x="383" y="22" width="98" height="89">
<path d="M475.201 103.195C478.242 101.462 480.124 97.7464 480.124 92.4597C480.124 81.888 472.598 69.0142 463.33 63.729C462.608 63.3174 461.897 62.9647 461.199 62.667C458.135 48.2794 447.969 33.1885 435.915 26.315C428.526 22.1018 421.847 21.7847 417.077 24.6795L404.517 31.8423L410.304 35.1427C410.112 36.022 409.963 36.9468 409.859 37.9134C409.057 37.3021 408.232 36.7525 407.393 36.2734C403.318 33.9492 399.625 33.7232 396.945 35.2335L383.751 42.7572L391.323 47.0749L392.633 46.3274C393.327 55.32 399.675 65.6813 407.393 70.0822C407.522 70.156 407.651 70.2274 407.779 70.2965V70.3434L462.609 101.609C462.744 101.693 462.878 101.774 463.013 101.854L462.052 102.401V110.693L475.201 103.195Z" fill="white"/>
</mask>
<g mask="url(#mask5_281_439)">
<path d="M427.75 41.8148L461.592 22.5173V62.8389L427.75 82.1367V41.8148Z" fill="url(#paint4_linear_281_439)"/>
</g>
<path d="M392.815 47.924C392.735 47.3875 392.675 46.8545 392.634 46.3267L391.324 47.0742L383.752 42.7565L396.946 35.2328H396.947C398.411 34.407 400.178 34.1006 402.145 34.3714L411.995 39.9885L395.447 49.4247L392.815 47.924Z" fill="#67B4FF"/>
<path d="M480.113 91.7383L462.702 101.666C462.806 101.73 462.91 101.792 463.014 101.854L462.053 102.401V110.693L475.201 103.196C478.242 101.462 480.124 97.7465 480.124 92.4598C480.124 92.2213 480.12 91.981 480.113 91.7383Z" fill="#67B4FF"/>
<path d="M444.116 32.4834L427.75 41.815V81.7307L428.107 81.9337L461.592 62.8394C461.461 62.7803 461.33 62.7226 461.2 62.6673C458.865 51.6966 452.399 40.317 444.116 32.4834Z" fill="#A4D2FF"/>
<path d="M448.048 70.1673C444.984 55.7796 434.818 40.6888 422.764 33.8152C409.312 26.1445 398.212 31.3879 396.708 45.413C395.905 44.8021 395.082 44.2524 394.242 43.7727C386.061 39.1082 379.419 42.8951 379.419 52.2253C379.419 61.5551 386.061 72.9173 394.242 77.5821C394.371 77.6556 394.5 77.7277 394.628 77.7964V77.8433L449.458 109.109C449.697 109.257 449.937 109.399 450.178 109.537C450.419 109.674 450.658 109.805 450.897 109.93L450.899 109.931C459.835 114.594 466.973 110.255 466.973 99.9596C466.973 89.3882 459.447 76.5145 450.178 71.2286C449.457 70.8173 448.747 70.4644 448.048 70.1673Z" fill="#D9ECFF"/>
<path d="M514.247 158.949C515.755 158.089 516.689 156.247 516.689 153.625C516.689 148.382 512.957 141.998 508.36 139.376C508.002 139.172 507.65 138.997 507.304 138.849C505.784 131.714 500.742 124.23 494.764 120.821C491.1 118.731 487.787 118.574 485.421 120.01L479.192 123.562L482.062 125.199C481.967 125.635 481.893 126.094 481.842 126.573C481.444 126.27 481.036 125.997 480.619 125.76C478.598 124.607 476.766 124.495 475.437 125.244L468.894 128.975L472.649 131.117L473.299 130.746C473.643 135.206 476.791 140.344 480.618 142.527C480.683 142.564 480.747 142.599 480.81 142.633V142.657L508.003 158.162C508.069 158.204 508.136 158.244 508.203 158.284L507.726 158.555V162.668L514.247 158.949Z" fill="#8EC7FF"/>
<mask id="mask6_281_439" style="mask-type:luminance" maskUnits="userSpaceOnUse" x="468" y="119" width="49" height="44">
<path d="M514.247 158.949C515.755 158.089 516.689 156.247 516.689 153.625C516.689 148.382 512.957 141.998 508.36 139.376C508.002 139.172 507.65 138.997 507.304 138.849C505.784 131.714 500.742 124.23 494.764 120.821C491.1 118.731 487.787 118.574 485.421 120.01L479.192 123.562L482.062 125.199C481.967 125.635 481.893 126.094 481.842 126.573C481.444 126.27 481.036 125.997 480.619 125.76C478.598 124.607 476.766 124.495 475.437 125.244L468.894 128.975L472.649 131.117L473.299 130.746C473.643 135.206 476.791 140.344 480.618 142.527C480.683 142.564 480.747 142.599 480.81 142.633V142.657L508.003 158.162C508.069 158.204 508.136 158.244 508.203 158.284L507.726 158.555V162.668L514.247 158.949V158.949V158.949Z" fill="white"/>
</mask>
<g mask="url(#mask6_281_439)">
<path d="M490.713 128.508L507.497 118.938V138.935L490.713 148.505V128.508Z" fill="url(#paint5_linear_281_439)"/>
</g>
<path d="M473.39 131.538C473.35 131.271 473.321 131.007 473.301 130.746L472.651 131.116L468.896 128.975L475.439 125.244C476.165 124.835 477.041 124.682 478.017 124.817L482.902 127.603L474.695 132.282L473.39 131.538Z" fill="#67B4FF"/>
<path d="M516.682 153.267L508.048 158.19C508.1 158.222 508.151 158.253 508.203 158.283L507.726 158.555V162.667L514.246 158.949C515.755 158.089 516.688 156.247 516.688 153.625C516.688 153.506 516.686 153.387 516.682 153.267L516.682 153.267Z" fill="#67B4FF"/>
<path d="M498.831 123.88L490.715 128.508V148.303L490.891 148.404L507.499 138.935C507.433 138.905 507.369 138.877 507.304 138.849C506.146 133.409 502.939 127.765 498.831 123.88Z" fill="#A4D2FF"/>
<path d="M500.782 142.569C499.262 135.434 494.22 127.949 488.242 124.541C481.571 120.736 476.067 123.337 475.321 130.293C474.922 129.989 474.514 129.717 474.096 129.479C470.04 127.166 466.746 129.044 466.746 133.671C466.746 138.297 470.04 143.933 474.096 146.246C474.161 146.283 474.225 146.318 474.288 146.353V146.376L501.481 161.882C501.599 161.955 501.719 162.026 501.838 162.094C501.958 162.162 502.076 162.227 502.195 162.289L502.196 162.29C506.628 164.602 510.167 162.45 510.167 157.344C510.167 152.101 506.435 145.717 501.838 143.095C501.481 142.892 501.128 142.717 500.782 142.569Z" fill="#D9ECFF"/>
<path d="M235.875 198.928C237.783 197.84 238.963 195.509 238.963 192.193C238.963 185.561 234.242 177.486 228.428 174.17C227.976 173.912 227.529 173.69 227.091 173.504C225.17 164.478 218.792 155.011 211.23 150.699C206.595 148.056 202.405 147.857 199.413 149.673L191.534 154.166L195.164 156.237C195.043 156.788 194.95 157.369 194.885 157.975C194.382 157.592 193.865 157.247 193.338 156.946C190.782 155.488 188.465 155.347 186.784 156.294L178.507 161.013L183.257 163.722L184.079 163.254C184.514 168.895 188.496 175.395 193.338 178.155C193.419 178.202 193.5 178.247 193.58 178.29V178.319L227.976 197.933C228.06 197.985 228.145 198.036 228.23 198.086L227.627 198.43V203.631L235.875 198.928H235.875V198.928Z" fill="#8EC7FF"/>
<mask id="mask7_281_439" style="mask-type:luminance" maskUnits="userSpaceOnUse" x="178" y="148" width="61" height="56">
<path d="M235.875 198.928C237.783 197.84 238.963 195.509 238.963 192.193C238.963 185.561 234.242 177.486 228.428 174.17C227.976 173.912 227.529 173.69 227.091 173.504C225.17 164.478 218.792 155.011 211.23 150.699C206.595 148.056 202.405 147.857 199.413 149.673L191.534 154.166L195.164 156.237C195.043 156.788 194.95 157.369 194.885 157.975C194.382 157.592 193.865 157.247 193.338 156.946C190.782 155.488 188.465 155.347 186.784 156.294L178.507 161.013L183.257 163.722L184.079 163.254C184.514 168.895 188.496 175.395 193.338 178.155C193.419 178.202 193.5 178.247 193.58 178.29V178.319L227.976 197.933C228.06 197.985 228.145 198.036 228.23 198.086L227.627 198.43V203.631L235.875 198.928H235.875V198.928Z" fill="white"/>
</mask>
<g mask="url(#mask7_281_439)">
<path d="M206.106 160.422L227.336 148.317V173.611L206.106 185.717V160.422Z" fill="url(#paint6_linear_281_439)"/>
</g>
<path d="M184.192 164.255C184.142 163.918 184.105 163.585 184.079 163.253L183.257 163.722L178.507 161.013L186.784 156.294C187.703 155.775 188.811 155.584 190.045 155.753L196.224 159.277L185.843 165.197L184.192 164.255Z" fill="#67B4FF"/>
<path d="M238.955 191.74L228.033 197.968C228.098 198.008 228.163 198.047 228.229 198.086L227.626 198.43V203.631L235.874 198.928C237.782 197.841 238.963 195.51 238.963 192.194C238.963 192.044 238.96 191.893 238.955 191.741L238.955 191.74Z" fill="#67B4FF"/>
<path d="M216.372 154.569L206.107 160.422V185.462L206.33 185.589L227.336 173.611C227.254 173.574 227.172 173.538 227.09 173.503C225.625 166.622 221.569 159.483 216.372 154.569Z" fill="#A4D2FF"/>
<path d="M218.838 178.209C216.916 169.183 210.539 159.716 202.977 155.405C194.539 150.592 187.576 153.882 186.632 162.68C186.129 162.296 185.612 161.952 185.085 161.651C179.953 158.725 175.786 161.1 175.786 166.953C175.786 172.806 179.953 179.934 185.085 182.86C185.166 182.906 185.247 182.951 185.327 182.994V183.024L219.723 202.637C219.873 202.73 220.023 202.82 220.175 202.906C220.325 202.992 220.476 203.075 220.626 203.152L220.627 203.153C226.232 206.078 230.71 203.356 230.71 196.898C230.71 190.266 225.989 182.19 220.175 178.874C219.722 178.617 219.277 178.395 218.838 178.209Z" fill="#D9ECFF"/>
<path d="M378.329 491.212C380.237 490.125 381.418 487.794 381.418 484.477C381.418 477.845 376.696 469.769 370.881 466.454C370.429 466.196 369.983 465.975 369.545 465.788C367.623 456.762 361.246 447.296 353.684 442.983C349.049 440.34 344.859 440.141 341.867 441.957L333.987 446.451L337.617 448.521C337.497 449.073 337.404 449.653 337.338 450.259C336.835 449.876 336.318 449.531 335.791 449.23C333.235 447.773 330.919 447.631 329.238 448.578L320.96 453.298L325.711 456.006L326.533 455.538C326.968 461.179 330.95 467.679 335.791 470.44C335.873 470.486 335.954 470.531 336.034 470.574V470.603L370.43 490.217C370.514 490.27 370.598 490.321 370.683 490.371L370.081 490.714V495.916L378.329 491.212Z" fill="#A6D3FF"/>
<mask id="mask8_281_439" style="mask-type:luminance" maskUnits="userSpaceOnUse" x="320" y="440" width="62" height="56">
<path d="M378.329 491.212C380.237 490.125 381.418 487.794 381.418 484.477C381.418 477.845 376.696 469.769 370.881 466.454C370.429 466.196 369.983 465.975 369.545 465.788C367.623 456.762 361.246 447.296 353.684 442.983C349.049 440.34 344.859 440.141 341.867 441.957L333.987 446.451L337.617 448.521C337.497 449.073 337.404 449.653 337.338 450.259C336.835 449.876 336.318 449.531 335.791 449.23C333.235 447.773 330.919 447.631 329.238 448.578L320.96 453.298L325.711 456.006L326.533 455.538C326.968 461.179 330.95 467.679 335.791 470.44C335.873 470.486 335.954 470.531 336.034 470.574V470.603L370.43 490.217C370.514 490.27 370.598 490.321 370.683 490.371L370.081 490.714V495.916L378.329 491.212Z" fill="white"/>
</mask>
<g mask="url(#mask8_281_439)">
<path d="M348.563 452.708L369.793 440.602V465.897L348.563 478.003V452.708Z" fill="url(#paint7_linear_281_439)"/>
</g>
<path d="M326.646 456.541C326.596 456.205 326.559 455.87 326.533 455.539L325.711 456.008L320.961 453.3L329.237 448.579C330.156 448.062 331.265 447.87 332.499 448.04L338.678 451.563L328.297 457.483L326.645 456.541L326.646 456.541Z" fill="#67B4FF"/>
<path d="M381.412 484.023L370.491 490.251C370.556 490.291 370.621 490.33 370.686 490.368L370.083 490.713V495.914L378.331 491.211C380.239 490.124 381.42 487.793 381.42 484.476C381.42 484.326 381.417 484.175 381.412 484.023L381.412 484.023Z" fill="#7CBEFF"/>
<path d="M358.829 446.853L348.563 452.707V477.747L348.786 477.875L369.793 465.896C369.711 465.859 369.629 465.823 369.547 465.788C368.082 458.907 364.026 451.768 358.829 446.853Z" fill="#B9DDFF"/>
<path d="M361.296 470.494C359.374 461.467 352.996 452.001 345.434 447.689C336.996 442.877 330.033 446.166 329.089 454.964C328.586 454.582 328.069 454.237 327.542 453.936C322.41 451.01 318.244 453.386 318.244 459.238C318.244 465.091 322.41 472.219 327.542 475.145C327.623 475.192 327.704 475.236 327.784 475.279V475.308L362.18 494.922C362.33 495.015 362.48 495.104 362.632 495.19C362.783 495.277 362.933 495.359 363.083 495.437L363.084 495.438C368.689 498.363 373.167 495.641 373.167 489.183C373.167 482.551 368.446 474.475 362.632 471.16C362.179 470.902 361.733 470.68 361.296 470.494Z" fill="#D9ECFF"/>
<path d="M160.484 470.984C163.438 469.3 165.267 465.689 165.267 460.553C165.267 450.283 157.955 437.776 148.95 432.641C148.25 432.242 147.56 431.899 146.881 431.609C143.904 417.632 134.028 402.971 122.317 396.293C115.139 392.2 108.65 391.892 104.017 394.704L91.8136 401.663L97.4364 404.868C97.2495 405.724 97.1055 406.621 97.0042 407.56C96.2252 406.967 95.4244 406.433 94.6085 405.967C90.6498 403.71 87.0617 403.489 84.4582 404.957L71.6399 412.266L78.9962 416.461L80.2691 415.735C80.9427 424.471 87.1103 434.537 94.6082 438.813C94.7334 438.885 94.8586 438.954 94.9832 439.021V439.066L148.251 469.442C148.381 469.523 148.512 469.602 148.644 469.679L147.71 470.212V478.266L160.484 470.984Z" fill="#8EC7FF"/>
<mask id="mask9_281_439" style="mask-type:luminance" maskUnits="userSpaceOnUse" x="71" y="392" width="95" height="87">
<path d="M160.484 470.984C163.438 469.3 165.267 465.689 165.267 460.553C165.267 450.283 157.955 437.776 148.95 432.641C148.25 432.242 147.56 431.899 146.881 431.609C143.904 417.632 134.028 402.971 122.317 396.293C115.139 392.2 108.65 391.892 104.017 394.704L91.8136 401.663L97.4364 404.868C97.2495 405.724 97.1055 406.621 97.0042 407.56C96.2252 406.967 95.4244 406.433 94.6085 405.967C90.6498 403.71 87.0617 403.489 84.4582 404.957L71.6399 412.266L78.9962 416.461L80.2691 415.735C80.9427 424.471 87.1103 434.537 94.6082 438.813C94.7334 438.885 94.8586 438.954 94.9832 439.021V439.066L148.251 469.442C148.381 469.523 148.512 469.602 148.644 469.679L147.71 470.212V478.266L160.484 470.984Z" fill="white"/>
</mask>
<g mask="url(#mask9_281_439)">
<path d="M114.384 411.349L147.261 392.601V431.774L114.384 450.522V411.349Z" fill="url(#paint8_linear_281_439)"/>
</g>
<path d="M80.4448 417.285C80.3679 416.764 80.3092 416.247 80.2696 415.733L78.9964 416.459L71.6401 412.264L84.4581 404.956C85.8811 404.154 87.5978 403.856 89.5095 404.119L99.0788 409.576L83.0023 418.743L80.4448 417.285Z" fill="#67B4FF"/>
<path d="M165.255 459.849L148.341 469.494C148.441 469.556 148.542 469.617 148.644 469.677L147.711 470.209V478.264L160.484 470.98C163.438 469.297 165.266 465.686 165.266 460.551C165.266 460.318 165.263 460.085 165.255 459.849Z" fill="#67B4FF"/>
<path d="M130.285 402.284L114.386 411.35V450.128L114.732 450.326L147.263 431.775C147.136 431.717 147.009 431.662 146.883 431.608C144.613 420.95 138.333 409.895 130.285 402.284Z" fill="#A4D2FF"/>
<path d="M134.105 438.895C131.129 424.918 121.252 410.257 109.542 403.579C96.4728 396.127 85.6893 401.221 84.2287 414.846C83.4491 414.253 82.6482 413.719 81.8324 413.254C73.8846 408.722 67.4321 412.401 67.4321 421.465C67.4321 430.529 73.8846 441.567 81.8324 446.099C81.9576 446.171 82.0834 446.241 82.2074 446.307V446.353L135.476 476.728C135.708 476.872 135.941 477.011 136.175 477.143C136.409 477.277 136.642 477.404 136.874 477.526L136.875 477.526C145.556 482.057 152.491 477.841 152.491 467.84C152.491 457.569 145.18 445.062 136.175 439.927C135.474 439.527 134.783 439.184 134.105 438.895Z" fill="#D9ECFF"/>
<path d="M426.938 81.0459L433.814 84.9659L420.065 52.4509L406.315 69.2861L413.19 73.2061V89.1515L426.938 96.9916L426.938 81.0459Z" fill="#ACC800"/>
<path d="M416.832 86.5807L426.937 80.8196V100.317L416.832 106.078V86.5807Z" fill="#778A00"/>
<path d="M416.832 86.5526L423.707 90.4728L409.958 58.2119L396.21 74.7925L403.084 78.7124V98.2379L416.832 106.078L416.832 86.5526Z" fill="#D3ED33"/>
<path d="M409.96 58.2123L420.064 52.4509L433.812 84.7115L423.709 90.4732L409.96 58.2123Z" fill="#A6C100"/>
<path d="M527.041 328.187C540.225 331.615 554.794 327.5 554.794 327.5L554.793 327.504L554.797 327.501C554.797 327.501 566.201 346.609 578.327 357.789C577.108 366.42 571.344 388.899 557.884 397.035L557.883 397.038L547.739 402.976L547.861 402.082C545.511 402.719 542.974 402.941 540.239 402.65L540.239 402.647L540.237 402.637L540.236 402.648C522.74 383.204 521.047 351.862 521.855 336.666L517.173 333.963L527.041 328.187Z" fill="#A639FF"/>
<path d="M544.927 333.279L554.796 327.498L554.795 327.502L554.799 327.5C554.799 327.5 566.203 346.608 578.329 357.788C577.109 366.419 571.346 388.898 557.885 397.034L557.884 397.037L547.741 402.974L547.863 402.081C545.513 402.718 542.976 402.939 540.24 402.649L540.241 402.646L540.239 402.636L540.238 402.647C522.743 383.202 544.12 348.475 544.927 333.279Z" fill="#D388FF"/>
<path d="M568.461 363.566C568.461 363.566 578.373 357.814 578.33 357.789C577.11 366.421 571.346 388.899 557.886 397.036L557.885 397.038L547.741 402.976L547.863 402.083C545.514 402.719 542.977 402.942 540.241 402.65L540.242 402.648L540.239 402.637L540.238 402.648C522.743 383.204 567.655 378.762 568.461 363.566Z" fill="#6B00C2"/>
<path d="M544.931 333.279C544.931 333.279 556.335 352.386 568.461 363.567C566.904 374.578 557.954 408.122 535.06 405.683L535.061 405.68L535.06 405.671L535.058 405.681C514.888 383.265 515.721 345.035 517.175 333.964C530.358 337.392 544.927 333.277 544.927 333.277V333.281L544.931 333.279Z" fill="#C767FF"/>
<path d="M544.091 339.433C544.091 339.433 553.557 355.292 563.621 364.572C562.33 373.71 554.901 401.552 535.899 399.527L535.9 399.525L535.898 399.516L535.897 399.526C519.157 380.92 519.848 349.19 521.054 340.002C531.996 342.847 544.089 339.431 544.089 339.431L544.088 339.435L544.091 339.433Z" fill="#D2E8FF"/>
<path d="M546.963 371.96L531.52 363.796L529.519 377.905L544.963 386.068L546.963 371.96Z" fill="#A539FF"/>
<path d="M533.099 364.631L535.316 365.803L536.812 355.248C536.978 354.079 537.992 353.595 539.077 354.167L543.004 356.244C544.087 356.817 544.833 358.232 544.667 359.401L543.171 369.955L545.387 371.127L547.033 359.521C547.292 357.692 546.126 355.479 544.43 354.583L538.286 351.335C536.59 350.439 535.004 351.197 534.744 353.026L533.099 364.631Z" fill="#A539FF"/>
<path d="M546.937 396.968C543.791 398.945 540.132 399.977 535.898 399.525V399.523L535.896 399.515L535.895 399.523C519.155 380.918 519.846 349.188 521.053 340.001C521.363 340.081 521.673 340.156 521.985 340.227C520.854 350.363 520.66 380.838 536.928 398.919L536.93 398.91L536.931 398.919V398.921C540.71 399.323 544.032 398.544 546.937 396.968Z" fill="#3700CC"/>
<defs>
<linearGradient id="paint0_linear_281_439" x1="114.659" y1="227.586" x2="44.2586" y2="254.701" gradientUnits="userSpaceOnUse">
<stop stop-color="#A4D2FF"/>
<stop offset="0.17" stop-color="#BCDEFF"/>
<stop offset="0.36" stop-color="#D1E8FF"/>
<stop offset="1" stop-color="#D9ECFF"/>
</linearGradient>
<linearGradient id="paint1_linear_281_439" x1="127.722" y1="-1323.87" x2="127.611" y2="-1332.14" gradientUnits="userSpaceOnUse">
<stop stop-color="#260096"/>
<stop offset="0.57" stop-color="#8800DF"/>
<stop offset="1" stop-color="#B300FF"/>
</linearGradient>
<linearGradient id="paint2_linear_281_439" x1="158.189" y1="204.897" x2="141.955" y2="241.14" gradientUnits="userSpaceOnUse">
<stop stop-color="#D0E8FF"/>
<stop offset="1" stop-color="#40A2FF"/>
</linearGradient>
<linearGradient id="paint3_linear_281_439" x1="131.15" y1="355.428" x2="496.928" y2="401.613" gradientUnits="userSpaceOnUse">
<stop stop-color="#0077C6"/>
<stop offset="0.16" stop-color="#007FD4"/>
<stop offset="0.35" stop-color="#0086E0"/>
<stop offset="1" stop-color="#0089E4"/>
</linearGradient>
<linearGradient id="paint4_linear_281_439" x1="501.009" y1="34.6723" x2="386.347" y2="71.5063" gradientUnits="userSpaceOnUse">
<stop stop-color="#D0E8FF"/>
<stop offset="0.51" stop-color="#ADD7FF"/>
<stop offset="1" stop-color="#40A2FF"/>
</linearGradient>
<linearGradient id="paint5_linear_281_439" x1="527.056" y1="124.961" x2="470.255" y2="143.208" gradientUnits="userSpaceOnUse">
<stop stop-color="#D0E8FF"/>
<stop offset="0.51" stop-color="#ADD7FF"/>
<stop offset="1" stop-color="#40A2FF"/>
</linearGradient>
<linearGradient id="paint6_linear_281_439" x1="251.994" y1="155.965" x2="180.064" y2="179.072" gradientUnits="userSpaceOnUse">
<stop stop-color="#D0E8FF"/>
<stop offset="0.51" stop-color="#ADD7FF"/>
<stop offset="1" stop-color="#40A2FF"/>
</linearGradient>
<linearGradient id="paint7_linear_281_439" x1="394.463" y1="448.246" x2="322.615" y2="471.327" gradientUnits="userSpaceOnUse">
<stop stop-color="#D0E8FF"/>
<stop offset="0.51" stop-color="#ADD7FF"/>
<stop offset="1" stop-color="#40A2FF"/>
</linearGradient>
<linearGradient id="paint8_linear_281_439" x1="185.447" y1="404.444" x2="74.053" y2="440.234" gradientUnits="userSpaceOnUse">
<stop stop-color="#D0E8FF"/>
<stop offset="0.51" stop-color="#ADD7FF"/>
<stop offset="1" stop-color="#40A2FF"/>
</linearGradient>
</defs>
</svg>
